<?xml version="1.0" encoding="UTF-8" standalone="no"?>
<svg
   viewBox="0 0 24 24"
   version="1.1"
   id="svg1"
   sodipodi:docname="brand-discord.svg"
   inkscape:version="1.4.3 (0d15f75, 2025-12-25)"
   width="24"
   height="24"
   xmlns:inkscape="http://www.inkscape.org/namespaces/inkscape"
   xmlns:sodipodi="http://sodipodi.sourceforge.net/DTD/sodipodi-0.dtd"
   xmlns="http://www.w3.org/2000/svg"
   xmlns:svg="http://www.w3.org/2000/svg">
  <defs
     id="defs1" />
  <sodipodi:namedview
     id="namedview1"
     pagecolor="#505050"
     bordercolor="#eeeeee"
     borderopacity="1"
     inkscape:showpageshadow="0"
     inkscape:pageopacity="0"
     inkscape:pagecheckerboard="0"
     inkscape:deskcolor="#505050"
     inkscape:zoom="1.63"
     inkscape:cx="55.828221"
     inkscape:cy="-21.779141"
     inkscape:window-width="1605"
     inkscape:window-height="1038"
     inkscape:window-x="1671"
     inkscape:window-y="137"
     inkscape:window-maximized="0"
     inkscape:current-layer="svg1" />
  <!--!Font Awesome Free 7.1.0 by @fontawesome - https://fontawesome.com License - https://fontawesome.com/license/free Copyright 2025 Fonticons, Inc.-->
  <path
     d="m 18.966059,5.6668011 c -0.0068,-0.01021 -0.01361,-0.02042 -0.02723,-0.023823 -1.296675,-0.5955853 -2.668223,-1.0210034 -4.073804,-1.2626409 -0.01361,-0.0034 -0.02723,0 -0.03744,0.0034 -0.01021,0.0034 -0.02042,0.013613 -0.02723,0.027227 -0.187184,0.3369312 -0.357352,0.6874756 -0.507099,1.0414235 -1.517891,-0.2314274 -3.059607,-0.2314274 -4.5740946,0 C 9.5660219,5.0950392 9.3958547,4.7478981 9.2052674,4.4109669 c -0.00681,-0.01021 -0.017017,-0.02042 -0.027227,-0.027227 -0.01021,-0.00681 -0.023823,-0.00681 -0.037437,-0.00681 -1.4055809,0.2416411 -2.7771287,0.6670591 -4.073803,1.2626444 -0.01021,0.0034 -0.02042,0.013613 -0.027227,0.023823 C 2.4462248,9.5364035 1.7349258,13.31752 2.0820669,17.047585 c 0,0.01021 0.0034,0.01702 0.00681,0.02723 0.0034,0.01021 0.01021,0.01361 0.017017,0.02042 1.511085,1.1197 3.1991439,1.97394 4.9961098,2.525281 0.013613,0.0034 0.027227,0.0034 0.037437,0 0.01021,-0.0034 0.023823,-0.01361 0.03063,-0.02382 0.384578,-0.524114 0.7283158,-1.082263 1.0210034,-1.660832 0.0034,-0.0068 0.00681,-0.01702 0.00681,-0.02723 0,-0.01021 0,-0.01702 -0.0034,-0.02723 -0.0034,-0.01021 -0.00681,-0.01702 -0.013613,-0.02042 -0.00681,-0.0034 -0.013613,-0.01021 -0.023824,-0.01361 -0.5377284,-0.207603 -1.0618435,-0.456047 -1.5621351,-0.745332 -0.01021,-0.0068 -0.017017,-0.01361 -0.023823,-0.02042 -0.00681,-0.0068 -0.01021,-0.02042 -0.01021,-0.03063 0,-0.01021 0,-0.02042 0.00681,-0.03063 0.00681,-0.01021 0.01021,-0.01702 0.02042,-0.02382 0.1055037,-0.07828 0.2110074,-0.159957 0.3097044,-0.241638 0.01021,-0.0068 0.02042,-0.01361 0.03063,-0.01361 0.01021,0 0.023823,0 0.034033,0.0034 3.2740166,1.494069 6.8203026,1.494069 10.0568826,0 0.01021,-0.0034 0.02382,-0.0068 0.03403,-0.0068 0.01021,0 0.02382,0.0068 0.03063,0.01361 0.0987,0.08168 0.2042,0.166764 0.309704,0.245041 0.0068,0.0068 0.01361,0.01361 0.02042,0.02382 0.0068,0.01021 0.0068,0.02042 0.0068,0.03063 0,0.01021 -0.0034,0.02042 -0.01021,0.03063 -0.0068,0.01021 -0.01361,0.01702 -0.02042,0.02042 -0.500292,0.292688 -1.021004,0.541132 -1.562135,0.741929 -0.0068,0.0034 -0.01702,0.0068 -0.02382,0.01361 -0.0068,0.0068 -0.01021,0.01361 -0.01361,0.02382 -0.0034,0.01021 -0.0034,0.01702 -0.0034,0.02723 0,0.01021 0.0034,0.01702 0.0068,0.02723 0.299494,0.578567 0.639829,1.133314 1.021004,1.660832 0.0068,0.01021 0.02042,0.02042 0.03063,0.02382 0.01021,0.0034 0.02723,0.0034 0.03744,0 1.80037,-0.551341 3.491832,-1.405581 5.00632,-2.525281 0.0068,-0.0068 0.01361,-0.01361 0.01702,-0.02042 0.0034,-0.0068 0.0068,-0.01702 0.0068,-0.02723 0.418605,-4.31544 -0.697692,-8.062523 -2.957513,-11.3841873 z m -10.2781,9.1107529 c -0.9869699,0 -1.7969659,-0.90529 -1.7969659,-2.01478 0,-1.10949 0.7963826,-2.01478 1.7969659,-2.01478 1.0107933,0 1.813982,0.912097 1.796966,2.01478 0,1.112895 -0.7963827,2.01478 -1.796966,2.01478 z m 6.650135,0 c -0.98697,0 -1.796966,-0.90529 -1.796966,-2.01478 0,-1.10949 0.796383,-2.01478 1.796966,-2.01478 1.010793,0 1.813983,0.912097 1.796966,2.01478 0,1.112895 -0.789576,2.01478 -1.796966,2.01478 z"
     id="path1"
     style="stroke-width:0.0340334;fill-opacity:1" />
</svg>
