<?xml version="1.0" encoding="UTF-8" standalone="no"?>
<svg
   viewBox="0 0 24 24"
   version="1.1"
   id="svg1"
   sodipodi:docname="brand-bluesky.svg"
   inkscape:version="1.4.2 (ebf0e940, 2025-05-08)"
   width="24"
   height="24"
   xmlns:inkscape="http://www.inkscape.org/namespaces/inkscape"
   xmlns:sodipodi="http://sodipodi.sourceforge.net/DTD/sodipodi-0.dtd"
   xmlns="http://www.w3.org/2000/svg"
   xmlns:svg="http://www.w3.org/2000/svg">
  <defs
     id="defs1" />
  <sodipodi:namedview
     id="namedview1"
     pagecolor="#505050"
     bordercolor="#eeeeee"
     borderopacity="1"
     inkscape:showpageshadow="0"
     inkscape:pageopacity="0"
     inkscape:pagecheckerboard="0"
     inkscape:deskcolor="#505050"
     inkscape:zoom="6.1318845"
     inkscape:cx="13.209642"
     inkscape:cy="16.878987"
     inkscape:window-width="1608"
     inkscape:window-height="1038"
     inkscape:window-x="123"
     inkscape:window-y="51"
     inkscape:window-maximized="0"
     inkscape:current-layer="svg1" />
  <!--!Font Awesome Free 7.1.0 by @fontawesome - https://fontawesome.com License - https://fontawesome.com/license/free Copyright 2025 Fonticons, Inc.-->
  <path
     d="m 15.275781,13.058625 c -0.09023,-0.01094 -0.183203,-0.02187 -0.273437,-0.03555 0.09297,0.01094 0.183203,0.02461 0.273437,0.03555 z M 12,11.210187 C 11.286328,9.8238584 9.3449222,7.2398744 7.5402342,5.9656555 5.8093752,4.7433899 5.1503912,4.9539367 4.7156252,5.1508117 c -0.500391,0.2269532 -0.590625,0.9953125 -0.590625,1.4464844 0,0.4511723 0.248828,3.7078129 0.410156,4.2519539 0.533203,1.796484 2.436328,2.403515 4.189063,2.20664 0.09023,-0.01367 0.180469,-0.02461 0.273437,-0.03828 -0.09023,0.01367 -0.180468,0.02734 -0.273437,0.03828 -2.567578,0.382813 -4.848047,1.317969 -1.856641,4.645704 C 10.157031,21.108625 11.373828,16.971515 12,14.87425 c 0.626172,2.097265 1.345312,6.083984 5.075,2.827344 2.8,-2.827344 0.768359,-4.265625 -1.799219,-4.645704 -0.09023,-0.01094 -0.183203,-0.02187 -0.273437,-0.03555 0.09297,0.01094 0.183203,0.02461 0.273437,0.03555 1.752735,0.194141 3.653125,-0.41289 4.189063,-2.20664 C 19.626172,10.305109 19.875,7.0512024 19.875,6.5972961 19.875,6.1433899 19.78477,5.3750305 19.284375,5.1508117 18.852344,4.9566711 18.190625,4.7433899 16.4625,5.9656555 14.655078,7.2398744 12.713672,9.8238584 12,11.210187 Z"
     id="path1-2"
     style="stroke-width:0.0273438" />
</svg>
